<?xml version="1.0" encoding="UTF-8"?>
<svg version="1.1" xmlns="http://www.w3.org/2000/svg" width="500" height="500">
<path d="M0 0 C165 0 330 0 500 0 C500 165 500 330 500 500 C335 500 170 500 0 500 C0 335 0 170 0 0 Z " fill="#FEFEFE" transform="translate(0,0)"/>
<path d="M0 0 C2.41528744 0.01610842 4.82890261 0.0000247 7.24414062 -0.01904297 C23.32004527 -0.04475789 37.92757507 2.71932827 53.16601562 7.89111328 C53.80466553 8.10598389 54.44331543 8.32085449 55.10131836 8.54223633 C79.0986941 16.67426707 98.72906548 29.53645901 117.41601562 46.39111328 C118.16496094 47.06658203 118.91390625 47.74205078 119.68554688 48.43798828 C144.87804292 72.45038777 159.09916398 105.79386346 165.41601562 139.39111328 C165.59559814 140.3244751 165.77518066 141.25783691 165.96020508 142.21948242 C166.48668691 145.88285978 166.63267502 149.49820482 166.68945312 153.19189453 C166.70189056 153.93739059 166.714328 154.68288666 166.72714233 155.45097351 C166.96759938 173.35342972 166.1184938 189.99194404 161.41601562 207.39111328 C161.09375 208.66083984 160.77148438 209.93056641 160.43945312 211.23876953 C155.04877275 230.52803019 145.08450018 249.96048373 132.41601562 265.39111328 C131.97999023 265.92720215 131.54396484 266.46329102 131.09472656 267.015625 C103.63308799 300.67418628 64.62034174 323.69217799 20.99511719 328.11865234 C-27.15957891 331.78445322 -70.30116083 318.95283907 -107.03735352 287.42016602 C-131.5060759 266.04808428 -150.50414912 235.93651527 -157.70898438 204.07861328 C-157.94294922 203.1127832 -157.94294922 203.1127832 -158.18164062 202.12744141 C-161.0201079 189.89388203 -161.96243701 177.71943571 -161.89648438 165.20361328 C-161.89466156 164.48155701 -161.89283875 163.75950073 -161.89096069 163.01556396 C-161.84245285 151.56866198 -161.15187166 140.57047559 -158.58398438 129.39111328 C-158.4230127 128.63830078 -158.26204102 127.88548828 -158.09619141 127.10986328 C-149.18454775 86.01871099 -122.67814045 49.27526757 -87.58398438 26.39111328 C-83.03201003 23.50854183 -78.35253075 20.89353179 -73.58398438 18.39111328 C-72.95717773 18.05869629 -72.33037109 17.7262793 -71.68457031 17.38378906 C-63.09404153 12.89514108 -54.34219946 9.44628369 -45.08398438 6.57861328 C-44.19590088 6.30073975 -43.30781738 6.02286621 -42.39282227 5.73657227 C-28.33565885 1.58173941 -14.60905 -0.11533461 0 0 Z " fill="#FCFCFC" transform="translate(247.583984375,85.60888671875)"/>
<path d="M0 0 C5.01014604 0.97152776 9.94427296 2.23541187 14.89160156 3.484375 C16.65525712 3.91569049 18.43207931 4.29268774 20.2109375 4.65625 C26.18846963 6.02049157 26.18846963 6.02049157 28.453125 8.75390625 C30.59714989 12.73243132 31.28366966 16.55678001 32 21 C32.6845246 20.99907821 33.36904921 20.99815641 34.07431698 20.99720669 C50.70665172 20.97515194 67.33898185 20.95858868 83.97132778 20.94818783 C92.01450054 20.94302477 100.05766357 20.93598188 108.10083008 20.92456055 C115.1087296 20.91461402 122.11662208 20.90814665 129.12452847 20.90591151 C132.83743192 20.90460434 136.5503152 20.90151816 140.2632122 20.89426994 C144.40131411 20.88625668 148.53938061 20.88600884 152.67749023 20.88647461 C153.91754318 20.88287933 155.15759613 20.87928406 156.43522644 20.87557983 C157.55568359 20.8769545 158.67614075 20.87832916 159.83055115 20.87974548 C160.81041709 20.87882369 161.79028303 20.8779019 162.79984188 20.87695217 C165 21 165 21 166 22 C166.24625928 28.12989484 165.62083448 33.99552218 164.79296875 40.0625 C164.6669075 41.01205566 164.54084625 41.96161133 164.41096497 42.93994141 C164.14362551 44.943863 163.87369619 46.94744061 163.60131836 48.95068359 C163.1926142 51.96231481 162.79391068 54.97514351 162.39648438 57.98828125 C160.91768186 69.06508416 159.21508102 80.04483929 157 91 C152.0198463 92.56241704 147.23972216 93.45422359 142.03613281 93.9296875 C141.2724942 94.00479553 140.50885559 94.07990356 139.72207642 94.1572876 C138.07514346 94.31839274 136.42791534 94.47650354 134.78043365 94.63189697 C132.16346252 94.87874114 129.5473613 95.13347972 126.93133545 95.39013672 C122.31325512 95.84190736 117.69453566 96.28671878 113.07556152 96.72924805 C105.69824486 97.43615989 98.32153635 98.14907959 90.94564056 98.8706665 C88.38545138 99.11942983 85.82476011 99.36241854 83.26397705 99.60498047 C66.65959683 100.25324207 66.65959683 100.25324207 53.0625 108.1875 C52.60576904 108.68217773 52.14903809 109.17685547 51.6784668 109.68652344 C47.31442531 114.52476289 44.17426981 118.25525053 43.75 124.9375 C43.8325 125.948125 43.915 126.95875 44 128 C46.89974699 128.82703539 49.49355393 129.13324038 52.50518799 129.15821838 C53.40258698 129.1680072 54.29998596 129.17779602 55.22457886 129.18788147 C56.68977463 129.19651466 56.68977463 129.19651466 58.18457031 129.20532227 C59.2190329 129.21522186 60.25349548 129.22512146 61.31930542 129.23532104 C64.73888866 129.26691084 68.15848579 129.29168363 71.578125 129.31640625 C73.94895794 129.33697794 76.31978723 129.35797447 78.69061279 129.37937927 C84.93112227 129.43457765 91.17166473 129.48399684 97.41223145 129.53222656 C103.78005916 129.58245784 110.14783897 129.63813543 116.515625 129.69335938 C129.01037575 129.80091365 141.50516808 129.90236475 154 130 C154.33 131.32 154.66 132.64 155 134 C151.535 134.99 151.535 134.99 148 136 C148.66 136.99 149.32 137.98 150 139 C150.6386469 145.38646904 149.8498227 148.8331327 146 154 C141.97245692 156.90357757 138.12842723 157.64485239 133.25 157.48828125 C129.23495045 156.61695973 126.57161227 154.10588074 124 151 C121.77357508 147.24244565 121.68810703 144.36650159 122 140 C122.66 138.68 123.32 137.36 124 136 C105.19 136 86.38 136 67 136 C67.33 136.66 67.66 137.32 68 138 C68.40678241 142.85792065 68.62085653 147.43152035 66.8125 152 C63.06065266 156.13996947 60.09868457 157.222064 54.5625 157.5 C50.85438984 157.39505349 48.39130043 157.11879246 45.4375 154.8125 C42.09810768 150.95935501 41.14695651 148.61652164 40.6875 143.5625 C41.02579393 139.70594922 42.05855567 137.31663406 44 134 C43.21625 133.7525 42.4325 133.505 41.625 133.25 C38.5550357 131.78811224 38.17707466 131.09871748 37 128 C36.2927288 120.92728797 38.70895514 115.98268047 42.875 110.4453125 C45.78166565 107.10050975 48.99580032 104.16309677 52.375 101.30078125 C54.32683027 99.04783791 54.32683027 99.04783791 53.80444336 95.91601562 C52.87622268 91.39745427 51.43095737 87.32852333 49.75390625 83.04296875 C49.42698288 82.1903244 49.10005951 81.33768005 48.76322937 80.459198 C47.70316338 77.69927417 46.63292204 74.94342174 45.5625 72.1875 C44.83037234 70.28663962 44.09893017 68.38551509 43.36816406 66.48413086 C41.57626024 61.82612221 39.77661596 57.17115447 37.97418213 52.51721191 C36.14115775 47.78081749 34.31860877 43.04040095 32.49584961 38.30004883 C31.69781578 36.22622429 30.89801189 34.15307949 30.09594727 32.08081055 C28.27803418 27.37642122 26.48598911 22.66310522 24.734375 17.93359375 C24.40147461 17.03568115 24.06857422 16.13776855 23.72558594 15.21264648 C23 13 23 13 23 11 C21.845 10.938125 20.69 10.87625 19.5 10.8125 C12.08337211 10.02678982 5.04247782 7.34173189 -2 5 C-1.125 1.125 -1.125 1.125 0 0 Z " fill="#FF3838" transform="translate(154,189)"/>
<path d="M0 0 C2.41528744 0.01610842 4.82890261 0.0000247 7.24414062 -0.01904297 C23.32004527 -0.04475789 37.92757507 2.71932827 53.16601562 7.89111328 C53.80466553 8.10598389 54.44331543 8.32085449 55.10131836 8.54223633 C79.0986941 16.67426707 98.72906548 29.53645901 117.41601562 46.39111328 C118.16496094 47.06658203 118.91390625 47.74205078 119.68554688 48.43798828 C144.87804292 72.45038777 159.09916398 105.79386346 165.41601562 139.39111328 C165.59559814 140.3244751 165.77518066 141.25783691 165.96020508 142.21948242 C166.48668691 145.88285978 166.63267502 149.49820482 166.68945312 153.19189453 C166.70189056 153.93739059 166.714328 154.68288666 166.72714233 155.45097351 C166.96759938 173.35342972 166.1184938 189.99194404 161.41601562 207.39111328 C161.09375 208.66083984 160.77148438 209.93056641 160.43945312 211.23876953 C155.04877275 230.52803019 145.08450018 249.96048373 132.41601562 265.39111328 C131.97999023 265.92720215 131.54396484 266.46329102 131.09472656 267.015625 C103.63308799 300.67418628 64.62034174 323.69217799 20.99511719 328.11865234 C-27.15957891 331.78445322 -70.30116083 318.95283907 -107.03735352 287.42016602 C-131.5060759 266.04808428 -150.50414912 235.93651527 -157.70898438 204.07861328 C-157.94294922 203.1127832 -157.94294922 203.1127832 -158.18164062 202.12744141 C-161.0201079 189.89388203 -161.96243701 177.71943571 -161.89648438 165.20361328 C-161.89466156 164.48155701 -161.89283875 163.75950073 -161.89096069 163.01556396 C-161.84245285 151.56866198 -161.15187166 140.57047559 -158.58398438 129.39111328 C-158.4230127 128.63830078 -158.26204102 127.88548828 -158.09619141 127.10986328 C-149.18454775 86.01871099 -122.67814045 49.27526757 -87.58398438 26.39111328 C-83.03201003 23.50854183 -78.35253075 20.89353179 -73.58398438 18.39111328 C-72.95717773 18.05869629 -72.33037109 17.7262793 -71.68457031 17.38378906 C-63.09404153 12.89514108 -54.34219946 9.44628369 -45.08398438 6.57861328 C-44.19590088 6.30073975 -43.30781738 6.02286621 -42.39282227 5.73657227 C-28.33565885 1.58173941 -14.60905 -0.11533461 0 0 Z M-40.58398438 9.39111328 C-41.421875 9.6210498 -42.25976562 9.85098633 -43.12304688 10.08789062 C-54.23663969 13.24374003 -64.49075671 17.80406267 -74.58398438 23.39111328 C-75.2352832 23.75108398 -75.88658203 24.11105469 -76.55761719 24.48193359 C-85.26440052 29.35928473 -93.07796446 34.7715405 -100.58398438 41.39111328 C-101.42445313 42.12201172 -102.26492187 42.85291016 -103.13085938 43.60595703 C-105.6504098 45.83208155 -108.1219835 48.10160928 -110.58398438 50.39111328 C-111.37289062 51.10267578 -112.16179687 51.81423828 -112.97460938 52.54736328 C-138.81677705 76.889018 -156.59135874 116.0545117 -157.89979553 151.50694275 C-157.99524256 155.21862837 -158.02300327 158.92829598 -158.02148438 162.64111328 C-158.02221954 163.42769318 -158.02295471 164.21427307 -158.02371216 165.02468872 C-157.98895645 179.26678634 -156.45385508 192.63530736 -152.58398438 206.39111328 C-152.32166016 207.3247168 -152.05933594 208.25832031 -151.7890625 209.22021484 C-139.8720627 250.24384364 -111.98025541 285.0294326 -74.62695312 305.84423828 C-50.69573872 318.00952827 -25.5920912 324.84042159 1.35351562 324.76611328 C2.42543655 324.76579605 2.42543655 324.76579605 3.51901245 324.76547241 C28.366539 324.69259969 51.0666661 319.0655963 73.41601562 308.39111328 C74.04362793 308.09366211 74.67124023 307.79621094 75.31787109 307.48974609 C89.94956198 300.44245941 102.70919609 290.59678472 114.41601562 279.39111328 C115.21007812 278.66021484 116.00414062 277.92931641 116.82226562 277.17626953 C132.33181858 262.42746996 143.04898925 243.92235374 151.41601562 224.39111328 C151.84527344 223.42689453 152.27453125 222.46267578 152.71679688 221.46923828 C165.57546036 190.73583824 165.90803093 154.2424704 157.41601562 122.39111328 C157.23490234 121.69244141 157.05378906 120.99376953 156.8671875 120.27392578 C146.66662402 81.71179559 119.58862669 46.70320225 85.18920898 26.59277344 C81.97039555 24.78041873 78.71044501 23.06152818 75.41601562 21.39111328 C74.32933594 20.83939453 73.24265625 20.28767578 72.12304688 19.71923828 C37.0904026 2.83393893 -3.06894042 -0.99545316 -40.58398438 9.39111328 Z " fill="#101010" transform="translate(247.583984375,85.60888671875)"/>
<path d="M0 0 C3.28302752 2.21826184 3.91180654 3.62008972 4.8125 7.5 C5 11 5 11 4.25 13.125 C4.1675 13.74375 4.085 14.3625 4 15 C6.39585286 17.64587234 6.39585286 17.64587234 9 20 C9 20.66 9 21.32 9 22 C7.375 22.8125 7.375 22.8125 5 23 C2.99651034 21.33752986 0.99665598 19.67067133 -1 18 C-3.75401951 17.57869093 -3.75401951 17.57869093 -6 18 C-5.649375 18.7425 -5.29875 19.485 -4.9375 20.25 C-3.95490707 23.1322726 -3.9673198 24.21176345 -5 27 C-5.99 27 -6.98 27 -8 27 C-8.42152344 25.78441406 -8.84304687 24.56882813 -9.27734375 23.31640625 C-9.83057808 21.73171808 -10.38397172 20.14708552 -10.9375 18.5625 C-11.21529297 17.76005859 -11.49308594 16.95761719 -11.77929688 16.13085938 C-12.04677734 15.36708984 -12.31425781 14.60332031 -12.58984375 13.81640625 C-12.95903931 12.75595093 -12.95903931 12.75595093 -13.33569336 11.67407227 C-13.87467975 9.99317368 -13.87467975 9.99317368 -15 9 C-15.04080783 7.00041636 -15.04254356 4.99954746 -15 3 C-4.84962406 -0.78947368 -4.84962406 -0.78947368 0 0 Z " fill="#0F0F0F" transform="translate(209,107)"/>
<path d="M0 0 C5.61 0 11.22 0 17 0 C17 6.6 17 13.2 17 20 C11.39 20 5.78 20 0 20 C0 13.4 0 6.8 0 0 Z " fill="#FFF0F0" transform="translate(253,240)"/>
<path d="M0 0 C5.61 0 11.22 0 17 0 C17 6.6 17 13.2 17 20 C11.39 20 5.78 20 0 20 C0 13.4 0 6.8 0 0 Z " fill="#FFF0F0" transform="translate(231,240)"/>
<path d="M0 0 C5.61 0 11.22 0 17 0 C17 6.6 17 13.2 17 20 C11.39 20 5.78 20 0 20 C0 13.4 0 6.8 0 0 Z " fill="#FFF3F3" transform="translate(253,215)"/>
<path d="M0 0 C5.61 0 11.22 0 17 0 C17 6.6 17 13.2 17 20 C11.39 20 5.78 20 0 20 C0 13.4 0 6.8 0 0 Z " fill="#FFF3F3" transform="translate(231,215)"/>
<path d="M0 0 C0.66 0 1.32 0 2 0 C3.49877503 1.65483608 4.92488473 3.37590512 6.3125 5.125 C8.84491157 8.31199292 11.37392527 11.43844107 14.125 14.4375 C16 17 16 17 15.8125 19.375 C15.544375 19.91125 15.27625 20.4475 15 21 C14.01 21 13.02 21 12 21 C9.72137289 18.516241 7.94354369 15.76415103 6 13 C5.67 16.3 5.34 19.6 5 23 C1.37 22.67 -2.26 22.34 -6 22 C-4.2365625 23.85625 -4.2365625 23.85625 -2.4375 25.75 C-0.43359375 27.859375 -0.43359375 27.859375 1 30 C0.71484375 32.265625 0.71484375 32.265625 0 34 C-4.56285482 31.97438482 -7.02026832 28.87677505 -10.1875 25.125 C-10.73341797 24.49980469 -11.27933594 23.87460938 -11.84179688 23.23046875 C-12.62200195 22.31587891 -12.62200195 22.31587891 -13.41796875 21.3828125 C-13.89000732 20.82996582 -14.3620459 20.27711914 -14.84838867 19.70751953 C-16 18 -16 18 -17 14 C-11.72 14.99 -6.44 15.98 -1 17 C-0.67 11.39 -0.34 5.78 0 0 Z " fill="#0E0E0E" transform="translate(161,128)"/>
<path d="M0 0 C5.28 0 10.56 0 16 0 C16 6.27 16 12.54 16 19 C10.72 19 5.44 19 0 19 C0 12.73 0 6.46 0 0 Z " fill="#FFFCFC" transform="translate(276,216)"/>
<path d="M0 0 C5.28 0 10.56 0 16 0 C16 6.27 16 12.54 16 19 C10.72 19 5.44 19 0 19 C0 12.73 0 6.46 0 0 Z " fill="#FFFCFC" transform="translate(209,216)"/>
<path d="M0 0 C3.64786296 2.7498052 5.72925169 5.64625847 6.625 10.125 C5.5761968 14.94949474 3.01923325 17.32051117 -1 20 C-5.23782752 19.92152171 -7.44621665 19.40931813 -10.875 16.875 C-13.4833526 13.34605236 -14.15406359 11.39081228 -14 7 C-10.59536113 1.03186834 -6.76910052 -0.90254674 0 0 Z " fill="#1A1A1A" transform="translate(163,337)"/>
<path d="M0 0 C0.99 0 1.98 0 3 0 C3.27714844 1.13179688 3.55429687 2.26359375 3.83984375 3.4296875 C4.20560488 4.91148902 4.57149711 6.39325818 4.9375 7.875 C5.11990234 8.62136719 5.30230469 9.36773437 5.49023438 10.13671875 C6.45209692 14.17039125 6.45209692 14.17039125 8 18 C9.98 14.7 11.96 11.4 14 8 C15.32 8.33 16.64 8.66 18 9 C17.0054921 13.77163558 14.57481686 17.52697533 12.125 21.6875 C11.67769531 22.47189453 11.23039062 23.25628906 10.76953125 24.06445312 C10.11404297 25.18303711 10.11404297 25.18303711 9.4453125 26.32421875 C8.85000732 27.3464856 8.85000732 27.3464856 8.24267578 28.3894043 C7 30 7 30 4 31 C3.72285156 29.79601562 3.44570313 28.59203125 3.16015625 27.3515625 C2.79440321 25.77601093 2.42851055 24.20049177 2.0625 22.625 C1.88009766 21.8309375 1.69769531 21.036875 1.50976562 20.21875 C1.33251953 19.45820313 1.15527344 18.69765625 0.97265625 17.9140625 C0.81031494 17.2123291 0.64797363 16.5105957 0.48071289 15.78759766 C0.0411926 13.91605426 0.0411926 13.91605426 -1 12 C-1.61488281 13.06541016 -1.61488281 13.06541016 -2.2421875 14.15234375 C-3.05042969 15.53099609 -3.05042969 15.53099609 -3.875 16.9375 C-4.40867187 17.85402344 -4.94234375 18.77054688 -5.4921875 19.71484375 C-7 22 -7 22 -9 23 C-9.66 22.67 -10.32 22.34 -11 22 C-10.47095089 16.72008992 -7.77042751 12.6577479 -5.125 8.1875 C-4.67769531 7.39923828 -4.23039062 6.61097656 -3.76953125 5.79882812 C-3.33253906 5.05439453 -2.89554687 4.30996094 -2.4453125 3.54296875 C-1.85000732 2.5223938 -1.85000732 2.5223938 -1.24267578 1.48120117 C-0.83259277 0.99240479 -0.42250977 0.5036084 0 0 Z " fill="#0F0F0F" transform="translate(320,117)"/>
<path d="M0 0 C5.28 0 10.56 0 16 0 C15 13.85714286 15 13.85714286 14 20 C9.38 20 4.76 20 0 20 C0 13.4 0 6.8 0 0 Z " fill="#FFF4F4" transform="translate(298,215)"/>
<path d="M0 0 C3.28870485 2.72721866 3.89723897 4.28067282 4.5 8.5 C3.9231981 12.53761333 2.85349783 14.14650217 0 17 C-3.48071228 18.74035614 -7.20212738 18.57339107 -11 18 C-13.84618734 15.84800469 -14.73027585 14.31997747 -15.44140625 10.83984375 C-15.79371764 6.34974751 -15.39660488 4.5084678 -12.5625 0.875 C-8.54062936 -1.87630343 -4.48001775 -1.53017684 0 0 Z " fill="#151515" transform="translate(304,373)"/>
<path d="M0 0 C5.61 0 11.22 0 17 0 C17 5.61 17 11.22 17 17 C9 18 9 18 0 18 C0 12.06 0 6.12 0 0 Z " fill="#FFF5F5" transform="translate(231,265)"/>
<path d="M0 0 C3.4375 2 3.4375 2 6 5 C6.81694628 9.67887415 6.72547504 12.56526982 4 16.5 C0.63338326 19.30551395 -0.82681724 19.78932384 -5.06640625 19.46875 C-8.08803835 18.73623313 -9.86745358 17.19716904 -12 15 C-13.55024464 11.89951072 -13.28992015 9.42105782 -13 6 C-9.33404658 0.37887142 -6.67491925 -0.66749193 0 0 Z " fill="#0F0F0F" transform="translate(359,336)"/>
<path d="M0 0 C3.47924392 0.8645394 4.91967516 2.61216046 6.93359375 5.48046875 C8.30994823 9.93338031 8.34378528 11.68938508 6.18359375 15.85546875 C3.33278766 19.18140919 1.80547778 19.40120657 -2.50390625 19.79296875 C-6.06640625 19.48046875 -6.06640625 19.48046875 -8.44140625 17.60546875 C-11.00636816 14.2512878 -11.48012407 11.79357705 -11.40234375 7.5234375 C-11.06640625 5.48046875 -11.06640625 5.48046875 -9.06640625 2.48046875 C-5.7352527 0.25969971 -3.92522041 -0.27454283 0 0 Z " fill="#151515" transform="translate(125.06640625,269.51953125)"/>
<path d="M0 0 C5.28 0 10.56 0 16 0 C16 5.94 16 11.88 16 18 C10.72 18 5.44 18 0 18 C0 12.06 0 6.12 0 0 Z " fill="#FFFFFF" transform="translate(276,241)"/>
<path d="M0 0 C5.28 0 10.56 0 16 0 C16 5.94 16 11.88 16 18 C10.72 18 5.44 18 0 18 C0 12.06 0 6.12 0 0 Z " fill="#FFFFFF" transform="translate(209,241)"/>
<path d="M0 0 C5.28 0 10.56 0 16 0 C16 6.27 16 12.54 16 19 C11.05 19.495 11.05 19.495 6 20 C5.65066406 19.15695312 5.30132812 18.31390625 4.94140625 17.4453125 C4.48636719 16.34960938 4.03132812 15.25390625 3.5625 14.125 C3.11003906 13.03445313 2.65757812 11.94390625 2.19140625 10.8203125 C1.50456537 9.19441376 0.78934113 7.57868226 0 6 C0 4.02 0 2.04 0 0 Z " fill="#FFF9F9" transform="translate(209,265)"/>
<path d="M0 0 C1.32 0.66 2.64 1.32 4 2 C2.79618552 4.49361571 1.54571278 6.68143083 0 9 C0.83144531 8.95359375 1.66289062 8.9071875 2.51953125 8.859375 C3.60621094 8.82328125 4.69289063 8.7871875 5.8125 8.75 C7.43091797 8.68039063 7.43091797 8.68039063 9.08203125 8.609375 C12 9 12 9 13.88671875 11.015625 C14.25410156 11.67046875 14.62148438 12.3253125 15 13 C13.2508503 13.33776684 11.50063855 13.67003671 9.75 14 C8.28820312 14.2784375 8.28820312 14.2784375 6.796875 14.5625 C4 15 4 15 0 15 C0 20.28 0 25.56 0 31 C-4 29 -4 29 -5 28 C-5.07258946 25.81360547 -5.08373783 23.62499611 -5.0625 21.4375 C-5.04896484 19.64119141 -5.04896484 19.64119141 -5.03515625 17.80859375 C-5.02355469 16.88175781 -5.01195312 15.95492187 -5 15 C-5.66 15 -6.32 15 -7 15 C-7.2475 15.61875 -7.495 16.2375 -7.75 16.875 C-9.20628639 19.35068687 -10.37812506 19.95125002 -13 21 C-13.66 20.01 -14.32 19.02 -15 18 C-14.16855469 17.03578125 -13.33710938 16.0715625 -12.48046875 15.078125 C-11.38274647 13.80214013 -10.28509388 12.52609531 -9.1875 11.25 C-8.64029297 10.61578125 -8.09308594 9.9815625 -7.52929688 9.328125 C-4.91608821 6.28730038 -2.3441871 3.25718629 0 0 Z " fill="#111111" transform="translate(344,132)"/>
<path d="M0 0 C5.61 0 11.22 0 17 0 C17 4.95 17 9.9 17 15 C8.585 15.495 8.585 15.495 0 16 C0 10.72 0 5.44 0 0 Z " fill="#FFF3F3" transform="translate(253,265)"/>
<path d="M0 0 C4.6960061 2.19725002 8.58269303 5.30497424 12.6875 8.4375 C13.47189453 9.02337891 14.25628906 9.60925781 15.06445312 10.21289062 C15.81017578 10.78072266 16.55589844 11.34855469 17.32421875 11.93359375 C18.00572998 12.44978271 18.68724121 12.96597168 19.3894043 13.49780273 C21 15 21 15 22 18 C19.48139981 18.8395334 18.17630298 19.04520589 15.5625 18.375 C12.13262478 17.87306704 10.80239884 19.10648727 8 21 C7.34 21 6.68 21 6 21 C6 22.65 6 24.3 6 26 C4.02 26.99 4.02 26.99 2 28 C1.65988375 24.83402429 1.32916813 21.6671312 1 18.5 C0.90460938 17.613125 0.80921875 16.72625 0.7109375 15.8125 C0.16485054 10.50765526 -0.0996753 5.33262848 0 0 Z " fill="#0B0B0B" transform="translate(177,118)"/>
<path d="M0 0 C0.76957031 0.06574219 1.53914063 0.13148437 2.33203125 0.19921875 C1.83832031 1.04226562 1.34460938 1.8853125 0.8359375 2.75390625 C-0.12505859 4.39746094 -0.12505859 4.39746094 -1.10546875 6.07421875 C-1.74355469 7.16476563 -2.38164062 8.2553125 -3.0390625 9.37890625 C-3.95441261 10.96375704 -4.84948016 12.56224157 -5.66796875 14.19921875 C-4.49427734 15.13894531 -4.49427734 15.13894531 -3.296875 16.09765625 C-2.28496094 16.91492188 -1.27304688 17.7321875 -0.23046875 18.57421875 C0.77886719 19.38632813 1.78820312 20.1984375 2.828125 21.03515625 C5.33203125 23.19921875 5.33203125 23.19921875 6.33203125 25.19921875 C3.54403356 25.67377155 2.03608503 25.8654349 -0.66796875 25.19921875 C-3.96332019 22.82156012 -6.82075033 20.09163112 -9.66796875 17.19921875 C-9.33796875 20.49921875 -9.00796875 23.79921875 -8.66796875 27.19921875 C-10.31796875 27.52921875 -11.96796875 27.85921875 -13.66796875 28.19921875 C-15.68087228 19.89354886 -16.23688372 11.70747588 -16.66796875 3.19921875 C-14.19296875 3.69421875 -14.19296875 3.69421875 -11.66796875 4.19921875 C-11.66796875 6.83921875 -11.66796875 9.47921875 -11.66796875 12.19921875 C-11.00796875 12.19921875 -10.34796875 12.19921875 -9.66796875 12.19921875 C-9.44109375 11.51859375 -9.21421875 10.83796875 -8.98046875 10.13671875 C-7.8955951 7.70866819 -6.79241932 5.6099253 -5.35546875 3.38671875 C-4.96746094 2.78214844 -4.57945312 2.17757812 -4.1796875 1.5546875 C-2.66796875 0.19921875 -2.66796875 0.19921875 0 0 Z " fill="#121212" transform="translate(234.66796875,99.80078125)"/>
<path d="M0 0 C1.32283057 2.54390495 2.18563782 4.69304787 2.9375 7.5 C4.0739643 10.31093564 4.87668093 10.93742834 7.640625 12.33984375 C10.40716107 13.3365061 13.1639998 14.22479451 16 15 C13 17 13 17 10.0625 17.875 C6.6065385 19.14453688 5.17873461 20.04314588 3 23 C2.10289111 25.6607434 1.5530742 28.23462901 1 31 C-1 29 -1 29 -1.8125 25.625 C-3.19412297 21.40741408 -4.23739033 20.2575658 -8 18 C-10.32674482 17.1552275 -12.58172603 16.56900564 -15 16 C-12.87731977 13.87731977 -11.85339565 13.53464337 -9.0625 12.6875 C-6.12913055 11.62660689 -5.14564577 11.17962978 -3.125 8.6875 C-1.92776538 5.82743952 -0.89725594 2.96784657 0 0 Z " fill="#101010" transform="translate(120,218)"/>
<path d="M0 0 C4.29 0 8.58 0 13 0 C11.54878049 18.45121951 11.54878049 18.45121951 10 20 C6.7 20 3.4 20 0 20 C0 13.4 0 6.8 0 0 Z " fill="#FFEDED" transform="translate(298,240)"/>
<path d="M0 0 C1.19571705 2.33593669 2.23624486 4.60926307 3.1875 7.0625 C5.54758397 10.88746368 7.83994626 11.51426652 12 13 C12.99 13.66 13.98 14.32 15 15 C13.14375 15.61875 13.14375 15.61875 11.25 16.25 C7.66206636 17.61924676 5.30253733 18.81187139 3 22 C1.72234735 25.63543901 1.72234735 25.63543901 1 29 C0.34 29 -0.32 29 -1 29 C-1.17015625 28.38511719 -1.3403125 27.77023438 -1.515625 27.13671875 C-2.93038695 22.22458123 -2.93038695 22.22458123 -5.75 18.0625 C-8.74792024 16.64681544 -11.78934766 15.80266308 -15 15 C-13 13 -13 13 -9.1875 12 C-5.09843822 10.59229021 -3.88576986 8.6434766 -2 4.8125 C-1.30717422 3.21945651 -0.63153882 1.61831822 0 0 Z " fill="#0C0C0C" transform="translate(375,219)"/>
<path d="M0 0 C0.99 0 1.98 0 3 0 C3 1.65 3 3.3 3 5 C6.96 6.65 10.92 8.3 15 10 C15 10.99 15 11.98 15 13 C9.45949887 12.43174347 4.96284034 10.37113483 0 8 C-0.268125 8.86625 -0.53625 9.7325 -0.8125 10.625 C-1.97111987 13.91791964 -3.38209839 16.91127875 -5 20 C-3.02 20.66 -1.04 21.32 1 22 C1.66 20.35 2.32 18.7 3 17 C3.99 17 4.98 17 6 17 C4.125 21.75 4.125 21.75 3 24 C3.99 24 4.98 24 6 24 C6.495 23.175 6.99 22.35 7.5 21.5 C7.995 20.675 8.49 19.85 9 19 C9.99 19 10.98 19 12 19 C10.66511872 22.59391114 9.03977277 25.75490696 7 29 C1.03347646 27.42986223 -3.82909025 24.24970218 -9 21 C-7.50640515 16.15713185 -5.54966433 11.68649104 -3.375 7.125 C-2.88773437 6.09246094 -2.88773437 6.09246094 -2.390625 5.0390625 C-1.59676528 3.35794781 -0.79880442 1.67877079 0 0 Z " fill="#131313" transform="translate(376,295)"/>
<path d="M0 0 C4.62 0 9.24 0 14 0 C14 6.6 14 13.2 14 20 C11.69 20 9.38 20 7 20 C6.20788071 18.10435574 5.41632424 16.20847629 4.625 14.3125 C4.18414062 13.25675781 3.74328125 12.20101562 3.2890625 11.11328125 C2.65097656 9.57220703 2.65097656 9.57220703 2 8 C1.61585938 7.10667969 1.23171875 6.21335938 0.8359375 5.29296875 C0 3 0 3 0 0 Z " fill="#FFF3F3" transform="translate(189,215)"/>
<path d="M0 0 C2.34990142 2.88702175 3.84801777 5.04468314 4.4375 8.75 C4.2209375 9.86375 4.2209375 9.86375 4 11 C1 13 1 13 -2 13 C-2.144375 13.639375 -2.28875 14.27875 -2.4375 14.9375 C-3 17 -3 17 -4 18 C-6.6875 18.5625 -6.6875 18.5625 -10 18 C-12.36268768 15.56264499 -14.19512553 12.86731831 -16 10 C-13.90245565 8.3243583 -11.79775361 6.65949806 -9.6875 5 C-9.09259766 4.52304687 -8.49769531 4.04609375 -7.88476562 3.5546875 C-3.33984375 0 -3.33984375 0 0 0 Z " fill="#131313" transform="translate(152,323)"/>
<path d="M0 0 C3.34903861 1.23768818 4.85279734 2.10697303 6.875 5.0625 C7.43916593 9.0116615 7.52743688 11.1089384 5.25 14.4375 C2.29046447 16.46244536 0.4698199 17.0625 -3.125 17.0625 C-5.87216387 15.29210551 -7.65645922 13.99958156 -9.125 11.0625 C-9.5625 8.25 -9.5625 8.25 -9.125 5.0625 C-6.16174116 1.74647225 -4.52716343 0.09054327 0 0 Z " fill="#FFF7F7" transform="translate(291.125,323.9375)"/>
<path d="M0 0 C4.62 0 9.24 0 14 0 C14 1.32 14 2.64 14 4 C10.7 4 7.4 4 4 4 C4 6.97 4 9.94 4 13 C6.97 13 9.94 13 13 13 C13 13.99 13 14.98 13 16 C10.03 16 7.06 16 4 16 C4 17.65 4 19.3 4 21 C7.63 21 11.26 21 15 21 C14.67 22.32 14.34 23.64 14 25 C9.38 25 4.76 25 0 25 C0 16.75 0 8.5 0 0 Z " fill="#0C0C0C" transform="translate(243,100)"/>
<path d="M0 0 C2.9375 1.5625 2.9375 1.5625 5 4 C5.625 7.4375 5.625 7.4375 5 11 C2.55401113 14.38121991 1.10703441 15.76936783 -3 16.625 C-7.10703441 15.76936783 -8.55401113 14.38121991 -11 11 C-11.63007693 7.00951279 -11.63021887 4.98314143 -9.4375 1.5625 C-6.04295632 -0.61348954 -3.9634351 -0.55627159 0 0 Z " fill="#FFF8F8" transform="translate(212,325)"/>
<path d="M0 0 C3.8798031 1.46055606 6.42071842 2.65648684 9 6 C9.5 8.5 9.5 8.5 9 11 C7.25 13.3125 7.25 13.3125 5 15 C3.68 15 2.36 15 1 15 C1 17.31 1 19.62 1 22 C0.01 21.67 -0.98 21.34 -2 21 C-2.33 18.36 -2.66 15.72 -3 13 C-3.598125 13.33 -4.19625 13.66 -4.8125 14 C-7 15 -7 15 -10 15 C-9.45230629 10.81761166 -7.10111111 8.40131455 -4.4375 5.25 C-3.19806641 3.77273438 -3.19806641 3.77273438 -1.93359375 2.265625 C-1.29550781 1.51796875 -0.65742188 0.7703125 0 0 Z " fill="#151515" transform="translate(173,349)"/>
<path d="M0 0 C0.680625 -0.02578125 1.36125 -0.0515625 2.0625 -0.078125 C4 0.25 4 0.25 5.74609375 1.45703125 C7.41812413 3.84787843 7.24032391 5.30328295 7.0625 8.1875 C6.8450886 11.88349378 7.08886376 14.04494273 9 17.25 C6.625 16.9375 6.625 16.9375 4 16.25 C3.34 15.26 2.68 14.27 2 13.25 C1.01 12.92 0.02 12.59 -1 12.25 C-1 14.56 -1 16.87 -1 19.25 C-1.99 19.25 -2.98 19.25 -4 19.25 C-4.50220072 16.6254034 -5.00185357 14.00036631 -5.5 11.375 C-5.64308594 10.62863281 -5.78617187 9.88226563 -5.93359375 9.11328125 C-7 3.4765625 -7 3.4765625 -7 1.25 C-4.38672515 0.37890838 -2.69288829 0.06120201 0 0 Z " fill="#101010" transform="translate(279,376.75)"/>
<path d="M0 0 C0.33 6.6 0.66 13.2 1 20 C-2.48763093 18.25618453 -5.03368051 16.47193291 -8 14 C-8 17.63 -8 21.26 -8 25 C-11.73201018 23.13399491 -14.51622368 21.16748648 -17.75 18.5625 C-18.73484375 17.78003906 -19.7196875 16.99757813 -20.734375 16.19140625 C-21.48203125 15.46824219 -22.2296875 14.74507813 -23 14 C-23 13.01 -23 12.02 -23 11 C-18.10968128 11.85472385 -15.60997932 14.73713408 -12 18 C-12.33 14.04 -12.66 10.08 -13 6 C-9.33576817 8.1985391 -6.25526534 10.30278014 -3 13 C-3.33 9.04 -3.66 5.08 -4 1 C-2 0 -2 0 0 0 Z " fill="#191919" transform="translate(329,358)"/>
<path d="M0 0 C4.36668681 -0.28172173 7.78808032 -0.05297992 12 1 C14.18703385 0.62092718 14.18703385 0.62092718 16 0 C16 1.32 16 2.64 16 4 C15.195625 4.2475 14.39125 4.495 13.5625 4.75 C10.828919 5.72238859 10.828919 5.72238859 10.1875 8.125 C10.125625 8.74375 10.06375 9.3625 10 10 C11.98 10 13.96 10 16 10 C16 10.99 16 11.98 16 13 C10.06 13 4.12 13 -2 13 C-2.25 3.375 -2.25 3.375 0 0 Z " fill="#111111" transform="translate(386,252)"/>
<path d="M0 0 C5.28 0 10.56 0 16 0 C16 3.63 16 7.26 16 11 C10.4484167 12.11031666 5.64927335 12.06806353 0 12 C0 8.04 0 4.08 0 0 Z " fill="#FFFEFE" transform="translate(276,266)"/>
<path d="M0 0 C1.010625 0.0825 2.02125 0.165 3.0625 0.25 C5.0625 3.25 5.0625 3.25 4.6875 5.4375 C4.48125 6.035625 4.275 6.63375 4.0625 7.25 C3.0725 7.25 2.0825 7.25 1.0625 7.25 C1.0625 5.93 1.0625 4.61 1.0625 3.25 C0.4025 3.25 -0.2575 3.25 -0.9375 3.25 C-0.34019644 6.59489996 0.64167355 8.82917355 3.0625 11.25 C5.68875139 11.58425735 5.68875139 11.58425735 8.0625 11.25 C8.0625 12.24 8.0625 13.23 8.0625 14.25 C7.4025 14.25 6.7425 14.25 6.0625 14.25 C6.3925 15.9 6.7225 17.55 7.0625 19.25 C6.381875 19.085 5.70125 18.92 5 18.75 C1.96287561 18.13144615 1.96287561 18.13144615 -1.5625 18.375 C-4.9375 18.25 -4.9375 18.25 -6.875 17.0625 C-8.30155327 14.62896796 -8.29321424 13.02457104 -7.9375 10.25 C-7.2775 9.59 -6.6175 8.93 -5.9375 8.25 C-5.24393577 5.92451993 -4.57600788 3.59119555 -3.9375 1.25 C-2.9375 0.25 -2.9375 0.25 0 0 Z " fill="#141414" transform="translate(234.9375,376.75)"/>
<path d="M0 0 C2.27113803 0.14100857 4.54190725 0.28796755 6.8125 0.4375 C8.07707031 0.51871094 9.34164063 0.59992188 10.64453125 0.68359375 C14 1 14 1 17 2 C17 3.32 17 4.64 17 6 C14.03 5.505 14.03 5.505 11 5 C10.86722656 6.18078125 10.73445313 7.3615625 10.59765625 8.578125 C10.4194102 10.13543262 10.24101707 11.69272342 10.0625 13.25 C9.93198242 14.41595703 9.93198242 14.41595703 9.79882812 15.60546875 C9.66831055 16.73662109 9.66831055 16.73662109 9.53515625 17.890625 C9.456604 18.58188477 9.37805176 19.27314453 9.29711914 19.98535156 C8.99455017 22.03695313 8.53587616 23.99782535 8 26 C6.68 26 5.36 26 4 26 C4.14241648 23.64558284 4.28884808 21.29152516 4.4375 18.9375 C4.51871094 17.62652344 4.59992188 16.31554687 4.68359375 14.96484375 C4.97898249 11.26336762 5.43265388 7.66629552 6 4 C4.02 4 2.04 4 0 4 C0 2.68 0 1.36 0 0 Z " fill="#111111" transform="translate(261,100)"/>
<path d="M0 0 C1.32 0 2.64 0 4 0 C4 0.99 4 1.98 4 3 C2.68 3.33 1.36 3.66 0 4 C-0.04125 5.27875 -0.0825 6.5575 -0.125 7.875 C-0.15980469 8.95394531 -0.15980469 8.95394531 -0.1953125 10.0546875 C-0.18331689 12.23863645 -0.18331689 12.23863645 2 14 C5.5 14.41666667 5.5 14.41666667 9 14 C9.66 13.01 10.32 12.02 11 11 C10.67 10.01 10.34 9.02 10 8 C8.02 8.99 8.02 8.99 6 10 C6.61277612 7.03824877 7.25372522 5.61941217 9 3 C11 4 13 5 15 6 C15.34751969 8.91916538 15.53280018 11.13195476 13.95703125 13.69921875 C11.22253708 17.01108412 9.5235943 18.79223714 5.25 19.375 C0.76303626 18.85727342 -0.97763301 17.30351741 -4 14 C-5.125 10.5625 -5.125 10.5625 -5 7 C-3.5167749 4.33019483 -2.15883622 2.15883622 0 0 Z " fill="#1D1D1D" transform="translate(364,320)"/>
<path d="M0 0 C2.375 1 2.375 1 4 2 C3.67 2.99 3.34 3.98 3 5 C-0.63 5 -4.26 5 -8 5 C-8 8.3 -8 11.6 -8 15 C-4.7 15 -1.4 15 2 15 C2 14.34 2 13.68 2 13 C0.35 13 -1.3 13 -3 13 C-3 12.01 -3 11.02 -3 10 C-0.36 10 2.28 10 5 10 C5.36703975 15.50559629 5.36703975 15.50559629 3.76171875 17.66796875 C0.98636541 19.76640664 -1.39084329 19.5401369 -4.76953125 19.40234375 C-7 19 -7 19 -10.0625 17.0625 C-12.31015243 13.50975906 -12.79314544 11.30804623 -12.55078125 7.16015625 C-11.92326434 4.69904381 -11.22724996 3.65290827 -9.375 1.9375 C-5.73506157 -0.15209428 -4.10363511 -0.62446621 0 0 Z " fill="#1A1A1A" transform="translate(266,378)"/>
<path d="M0 0 C-1.47130373 4.3573226 -3.83080615 7.71934134 -6.625 11.3125 C-7.04523438 11.86228516 -7.46546875 12.41207031 -7.8984375 12.97851562 C-8.92720039 14.32292168 -9.9629009 15.66201413 -11 17 C-11.66 16.67 -12.32 16.34 -13 16 C-12.95875 14.906875 -12.9175 13.81375 -12.875 12.6875 C-12.67925334 8.91107771 -12.67925334 8.91107771 -15 6 C-15.680625 5.835 -16.36125 5.67 -17.0625 5.5 C-17.701875 5.335 -18.34125 5.17 -19 5 C-19.33 4.01 -19.66 3.02 -20 2 C-18.17046708 0.17046708 -15.28255365 0.61333433 -12.8125 0.4375 C-11.12060547 0.31181641 -11.12060547 0.31181641 -9.39453125 0.18359375 C-6.25422007 0.01374953 -3.1440162 -0.03339623 0 0 Z " fill="#191919" transform="translate(146,314)"/>
<path d="M0 0 C5.9129304 0.64270983 11.34244531 2.19003784 17 4 C17 4.99 17 5.98 17 7 C15.35 7 13.7 7 12 7 C11.01 9.31 10.02 11.62 9 14 C10.65 14.33 12.3 14.66 14 15 C14 15.99 14 16.98 14 18 C7.95198929 17.45018084 2.69398894 16.09570426 -3 14 C-3 13.01 -3 12.02 -3 11 C0.3 11.33 3.6 11.66 7 12 C7.33 9.69 7.66 7.38 8 5 C7.236875 4.855625 6.47375 4.71125 5.6875 4.5625 C3 4 3 4 0 3 C0 2.01 0 1.02 0 0 Z " fill="#151515" transform="translate(381,280)"/>
<path d="M0 0 C-0.14046255 2.95867918 -0.28712224 5.91682264 -0.4375 8.875 C-0.49647461 10.13763672 -0.49647461 10.13763672 -0.55664062 11.42578125 C-0.59853516 12.23144531 -0.64042969 13.03710938 -0.68359375 13.8671875 C-0.73858032 14.98262939 -0.73858032 14.98262939 -0.79467773 16.12060547 C-1 18 -1 18 -2 20 C-2.99 19.67 -3.98 19.34 -5 19 C-5.1546875 18.0409375 -5.1546875 18.0409375 -5.3125 17.0625 C-5.539375 16.381875 -5.76625 15.70125 -6 15 C-8.82450969 13.72493136 -8.82450969 13.72493136 -12 13 C-12.78375 12.79375 -13.5675 12.5875 -14.375 12.375 C-14.91125 12.25125 -15.4475 12.1275 -16 12 C-5.09090909 0 -5.09090909 0 0 0 Z " fill="#181818" transform="translate(192,361)"/>
<path d="M0 0 C1.32 0.33 2.64 0.66 4 1 C2.55613874 8.21930632 0.42211826 15.05110733 -2 22 C0.31 22.33 2.62 22.66 5 23 C5 24.32 5 25.64 5 27 C0.6822542 26.49202991 -3.03302114 25.80317221 -7 24 C-6.40531984 18.33171945 -4.90757199 13.39677846 -2.9375 8.0625 C-2.65583984 7.28326172 -2.37417969 6.50402344 -2.08398438 5.70117188 C-1.39532294 3.79859875 -0.69850097 1.89898275 0 0 Z " fill="#0D0D0D" transform="translate(294,106)"/>
<path d="M0 0 C3.375 0.9375 3.375 0.9375 5.375 3.9375 C5.1875 7.5 5.1875 7.5 4.375 10.9375 C1.12673326 13.10301116 0.14405843 13.48906953 -3.625 12.9375 C-6.35751347 10.94350369 -7.45747946 9.7751027 -8.125 6.4375 C-7.12997193 1.46235967 -5.00784378 -0.08634213 0 0 Z " fill="#F4F4F4" transform="translate(356.625,339.0625)"/>
<path d="M0 0 C1.8125 1.0625 1.8125 1.0625 3 3 C3.63316583 8.90954774 3.63316583 8.90954774 1.875 11.9375 C-0.92162472 13.52225401 -2.8493196 13.45947423 -6 13 C-8.58525068 10.75944941 -8.95386189 9.3229668 -9.4375 5.9375 C-9 3 -9 3 -7.3125 1.125 C-4.57639764 -0.20607683 -3.00519158 -0.46233717 0 0 Z " fill="#F5F5F5" transform="translate(301,375)"/>
<path d="M0 0 C2.61337234 2.15603218 3.7688753 3.63716127 4.33984375 7.00390625 C4.48680735 10.19595565 4.44912968 12.40116043 2.5 15 C2.005 15.33 1.51 15.66 1 16 C0.22073781 13.46739788 0.00881574 11.55921323 0.0625 8.875 C0.32865655 5.86760888 0.32865655 5.86760888 -2 4 C-6.10633817 3.52407864 -6.10633817 3.52407864 -9.7109375 5.2265625 C-11.20976818 6.93986887 -11.20976818 6.93986887 -11.07421875 9.26171875 C-10.94660156 10.06222656 -10.81898437 10.86273438 -10.6875 11.6875 C-10.56761719 12.49574219 -10.44773437 13.30398438 -10.32421875 14.13671875 C-10.21722656 14.75160156 -10.11023438 15.36648438 -10 16 C-13.875 14.25 -13.875 14.25 -15 12 C-15.375 8.6875 -15.375 8.6875 -15 5 C-10.42472399 -0.53849201 -6.99733776 -1.9775085 0 0 Z " fill="#161616" transform="translate(126,252)"/>
<path d="M0 0 C2.875 0.875 2.875 0.875 4.875 2.875 C5.42521834 8.92740175 5.42521834 8.92740175 3.75 11.8125 C0.98519567 13.37922245 -1.00688517 13.26476435 -4.125 12.875 C-6 11.75 -6 11.75 -7.125 9.875 C-7.66900387 6.22240261 -7.56274093 4.5316114 -5.5 1.4375 C-3.125 -0.125 -3.125 -0.125 0 0 Z " fill="#F5F5F5" transform="translate(160.125,340.125)"/>
<path d="M0 0 C1.8125 1.0625 1.8125 1.0625 3 3 C3.4375 6.5 3.4375 6.5 3 10 C0.900775 12.41022129 -0.43085365 12.90282867 -3.5625 13.4375 C-6 13 -6 13 -7.8125 11.375 C-9.34530228 8.30939543 -9.50410946 6.38473498 -9 3 C-6.30254095 0.00282328 -3.95012118 -0.60771095 0 0 Z " fill="#F6F6F6" transform="translate(126,273)"/>
<path d="M0 0 C3.3 0.99 6.6 1.98 10 3 C10 3.99 10 4.98 10 6 C7.36 5.67 4.72 5.34 2 5 C2 6.65 2 8.3 2 10 C3.32 10.66 4.64 11.32 6 12 C6 12.66 6 13.32 6 14 C3.69 13.67 1.38 13.34 -1 13 C1.05233685 15.2477975 2.00667261 16.0022242 5 17 C5 17.99 5 18.98 5 20 C0.88425629 19.5251065 -2.36383344 18.9789756 -6 17 C-5.18932465 14.54105116 -4.37654509 12.08283312 -3.5625 9.625 C-3.33240234 8.92632812 -3.10230469 8.22765625 -2.86523438 7.5078125 C-1.11328125 2.2265625 -1.11328125 2.2265625 0 0 Z " fill="#171717" transform="translate(211,371)"/>
<path d="M0 0 C0.99 0 1.98 0 3 0 C2.67 2.64 2.34 5.28 2 8 C4.31 8 6.62 8 9 8 C9 6.02 9 4.04 9 2 C9.99 2 10.98 2 12 2 C11.67 4.31 11.34 6.62 11 9 C11.99 9 12.98 9 14 9 C14.33 6.69 14.66 4.38 15 2 C15.99 2 16.98 2 18 2 C17.67 5.63 17.34 9.26 17 13 C14.18683642 12.69272975 11.37457481 12.37944848 8.5625 12.0625 C7.35883789 11.93198242 7.35883789 11.93198242 6.13085938 11.79882812 C0.11328125 11.11328125 0.11328125 11.11328125 -1 10 C-1.13568319 6.33655389 -1.16461426 3.49384279 0 0 Z " fill="#181818" transform="translate(383,267)"/>
<path d="M0 0 C1.32 0.33 2.64 0.66 4 1 C3.33673121 6.1692853 1.08075343 10.62251365 -1.0625 15.3125 C-1.62807617 16.56643555 -1.62807617 16.56643555 -2.20507812 17.84570312 C-3.13211807 19.89927262 -4.06386878 21.95056287 -5 24 C-6.32 23.67 -7.64 23.34 -9 23 C-8.43997169 17.43527426 -6.3654757 13.0732061 -3.9375 8.125 C-3.37192383 6.949375 -3.37192383 6.949375 -2.79492188 5.75 C-1.87006766 3.83004947 -0.93596022 1.914561 0 0 Z " fill="#0E0E0E" transform="translate(310,112)"/>
<path d="M0 0 C0.99 0 1.98 0 3 0 C3 1.65 3 3.3 3 5 C6.96 6.65 10.92 8.3 15 10 C15 10.99 15 11.98 15 13 C9.45949887 12.43174347 4.96284034 10.37113483 0 8 C-0.433125 9.423125 -0.433125 9.423125 -0.875 10.875 C-2 14 -2 14 -4 16 C-4.99 16.33 -5.98 16.66 -7 17 C-5.24009216 11.08030998 -2.60305395 5.58365008 0 0 Z " fill="#101010" transform="translate(376,295)"/>
<path d="M0 0 C2.97 0 5.94 0 9 0 C8.67 3.63 8.34 7.26 8 11 C5.36 11 2.72 11 0 11 C0 7.37 0 3.74 0 0 Z " fill="#FFF5F5" transform="translate(298,265)"/>
<path d="M0 0 C3.63 1.65 7.26 3.3 11 5 C10.01 6.485 10.01 6.485 9 8 C7.68 7.34 6.36 6.68 5 6 C4.9175 6.639375 4.835 7.27875 4.75 7.9375 C3.70479628 12.20541517 1.85908174 16.03107667 0 20 C-0.99 19.67 -1.98 19.34 -3 19 C-2.37321829 15.33827525 -1.35548154 12.1181005 0.0625 8.6875 C0.42472656 7.80449219 0.78695312 6.92148437 1.16015625 6.01171875 C1.43730469 5.34785156 1.71445313 4.68398438 2 4 C1.01 3.67 0.02 3.34 -1 3 C-0.67 2.01 -0.34 1.02 0 0 Z " fill="#141414" transform="translate(199,365)"/>
<path d="M0 0 C0.99 0.33 1.98 0.66 3 1 C2.34 2.65 1.68 4.3 1 6 C3.64 8.97 6.28 11.94 9 15 C8.67 15.99 8.34 16.98 8 18 C4.54804233 16.5741914 2.8985744 14.90253666 0.75 11.875 C0.22921875 11.15054687 -0.2915625 10.42609375 -0.828125 9.6796875 C-1.21484375 9.12539063 -1.6015625 8.57109375 -2 8 C-3.65 8.33 -5.3 8.66 -7 9 C-7.33 8.01 -7.66 7.02 -8 6 C-6.7391988 4.96680187 -5.46596742 3.94875621 -4.1875 2.9375 C-3.47980469 2.36902344 -2.77210938 1.80054688 -2.04296875 1.21484375 C-1.36878906 0.81394531 -0.69460938 0.41304688 0 0 Z " fill="#131313" transform="translate(341,347)"/>
<path d="M0 0 C-0.33 0.99 -0.66 1.98 -1 3 C-3.1796875 3.94921875 -3.1796875 3.94921875 -5.875 4.6875 C-6.75929687 4.93886719 -7.64359375 5.19023437 -8.5546875 5.44921875 C-11 6 -11 6 -14 6 C-13.67 8.31 -13.34 10.62 -13 13 C-13.99 13 -14.98 13 -16 13 C-16.66 10.03 -17.32 7.06 -18 4 C-15.75438718 3.13237686 -13.50473745 2.2807897 -11.25 1.4375 C-10.61578125 1.19064453 -9.9815625 0.94378906 -9.328125 0.68945312 C-5.88990821 -0.58197079 -3.47831118 -1.46686355 0 0 Z " fill="#191919" transform="translate(136,290)"/>
<path d="M0 0 C-0.2265625 1.859375 -0.2265625 1.859375 -1 4 C-2.9609375 5.265625 -2.9609375 5.265625 -5.375 6.25 C-6.56222656 6.75273437 -6.56222656 6.75273437 -7.7734375 7.265625 C-10 8 -10 8 -13 8 C-12.34 10.31 -11.68 12.62 -11 15 C-11.99 15 -12.98 15 -14 15 C-15.5625 12.1875 -15.5625 12.1875 -17 9 C-16 6 -16 6 -13.1640625 4.39453125 C-11.99617188 3.87246094 -10.82828125 3.35039062 -9.625 2.8125 C-8.46226562 2.28269531 -7.29953125 1.75289063 -6.1015625 1.20703125 C-3 0 -3 0 0 0 Z " fill="#141414" transform="translate(139,299)"/>
<path d="M0 0 C0.33 1.98 0.66 3.96 1 6 C-3.625 9 -3.625 9 -7 9 C-7.66 6.36 -8.32 3.72 -9 1 C-5.64919071 -1.10976881 -3.77897651 -1.0497157 0 0 Z " fill="#F0F0F0" transform="translate(208,112)"/>
<path d="M0 0 C-0.14046255 2.95867918 -0.28712224 5.91682264 -0.4375 8.875 C-0.49647461 10.13763672 -0.49647461 10.13763672 -0.55664062 11.42578125 C-0.59853516 12.23144531 -0.64042969 13.03710938 -0.68359375 13.8671875 C-0.73858032 14.98262939 -0.73858032 14.98262939 -0.79467773 16.12060547 C-1 18 -1 18 -2 20 C-2.99 19.67 -3.98 19.34 -5 19 C-5.35412344 17.67203709 -5.68521554 16.33783393 -6 15 C-7.47890069 13.26973898 -7.47890069 13.26973898 -9 12 C-8.01 11.67 -7.02 11.34 -6 11 C-5.34 11.33 -4.68 11.66 -4 12 C-4.0928125 10.14375 -4.0928125 10.14375 -4.1875 8.25 C-4.19809406 5.26247642 -4.0926753 4.16117444 -2.5625 1.5 C-1 0 -1 0 0 0 Z " fill="#121212" transform="translate(192,361)"/>
<path d="M0 0 C1.98 0 3.96 0 6 0 C6.33 1.65 6.66 3.3 7 5 C5.02 5.66 3.04 6.32 1 7 C0.67 4.69 0.34 2.38 0 0 Z " fill="#E9E9E9" transform="translate(276,380)"/>
<path d="M0 0 C1.67542976 0.28604898 3.34385343 0.61781233 5 1 C5 2.98 5 4.96 5 7 C3.02 7 1.04 7 -1 7 C-1.04254356 5.00045254 -1.04080783 2.99958364 -1 1 C-0.67 0.67 -0.34 0.34 0 0 Z " fill="#E9E9E9" transform="translate(388,255)"/>
<path d="M0 0 C1.32 0.66 2.64 1.32 4 2 C4 3.65 4 5.3 4 7 C2.1875 7.625 2.1875 7.625 0 8 C-0.99 7.34 -1.98 6.68 -3 6 C-1.125 1.125 -1.125 1.125 0 0 Z " fill="#EAEAEA" transform="translate(174,353)"/>
<path d="M0 0 C3.56311466 1.78155733 5.35645475 3.16763009 8 6 C3.25 9 3.25 9 1 9 C0.67 6.03 0.34 3.06 0 0 Z " fill="#DCDCDC" transform="translate(181,126)"/>
<path d="M0 0 C1.65 0 3.3 0 5 0 C5 3.96 5 7.92 5 12 C2.32522069 9.32522069 1.3535886 6.507025 0 3 C0 2.01 0 1.02 0 0 Z " fill="#FFC6C6" transform="translate(198,240)"/>
<path d="M0 0 C1.5625 1.25 1.5625 1.25 3 3 C2.6875 5.1875 2.6875 5.1875 2 7 C0.68 6.67 -0.64 6.34 -2 6 C-2.33 4.68 -2.66 3.36 -3 2 C-2.01 1.34 -1.02 0.68 0 0 Z " fill="#E9E9E9" transform="translate(144,331)"/>
<path d="M0 0 C1.32 1.32 2.64 2.64 4 4 C3.67 4.99 3.34 5.98 3 7 C1.68 6.67 0.36 6.34 -1 6 C-1.625 4.125 -1.625 4.125 -2 2 C-1.34 1.34 -0.68 0.68 0 0 Z " fill="#ECECEC" transform="translate(232,386)"/>
<path d="M0 0 C0.99 0.33 1.98 0.66 3 1 C3.6875 3.0625 3.6875 3.0625 4 5 C2.68 5.33 1.36 5.66 0 6 C-0.66 4.68 -1.32 3.36 -2 2 C-1.34 1.34 -0.68 0.68 0 0 Z " fill="#EDEDED" transform="translate(149,327)"/>
<path d="M0 0 C2 1 2 1 2 1 Z M-2 1 C-1.34 1.33 -0.68 1.66 0 2 C-1.485 3.485 -1.485 3.485 -3 5 C-2.67 5.66 -2.34 6.32 -2 7 C-3.65 7.66 -5.3 8.32 -7 9 C-7.33 8.01 -7.66 7.02 -8 6 C-6.02 4.35 -4.04 2.7 -2 1 Z " fill="#1A1A1A" transform="translate(341,347)"/>
<path d="M0 0 C0.33 0.66 0.66 1.32 1 2 C1.66 2.33 2.32 2.66 3 3 C0.375 6.875 0.375 6.875 -3 8 C-1.125 2.25 -1.125 2.25 0 0 Z " fill="#343434" transform="translate(372,304)"/>
<path d="M0 0 C0.66 0 1.32 0 2 0 C1.67 1.98 1.34 3.96 1 6 C-0.32 5.34 -1.64 4.68 -3 4 C-1.625 2 -1.625 2 0 0 Z " fill="#DCDCDC" transform="translate(187,367)"/>
<path d="M0 0 C0.66 0 1.32 0 2 0 C2.33 1.65 2.66 3.3 3 5 C2.01 5.66 1.02 6.32 0 7 C-1.04449911 3.86650268 -0.93423645 3.01031744 0 0 Z " fill="#292929" transform="translate(237,378)"/>
<path d="M0 0 C1.98 0 3.96 0 6 0 C4.515 2.475 4.515 2.475 3 5 C1.5 3.625 1.5 3.625 0 2 C0 1.34 0 0.68 0 0 Z " fill="#E9E9E9" transform="translate(134,318)"/>
<path d="M0 0 C0.99 0 1.98 0 3 0 C2.67 1.65 2.34 3.3 2 5 C0.68 5.33 -0.64 5.66 -2 6 C-1.34 4.02 -0.68 2.04 0 0 Z " fill="#232323" transform="translate(376,295)"/>
<path d="M0 0 C0.99 0 1.98 0 3 0 C3 2.64 3 5.28 3 8 C0.4345406 5.4345406 0.45953913 3.52313332 0 0 Z " fill="#FFFAFA" transform="translate(199,241)"/>
</svg>
